<svg width="36" height="36" viewBox="0 0 36 36" fill="none" xmlns="http://www.w3.org/2000/svg">
<g id="place_24px">
<g id="&#226;&#134;&#179; Light Color">
<path id="Mask" opacity="0.5" fill-rule="evenodd" clip-rule="evenodd" d="M18 6C22.14 6 25.5 9.36 25.5 13.5C25.5 17.82 21.18 24.285 18 28.32C14.88 24.315 10.5 17.775 10.5 13.5C10.5 9.36 13.86 6 18 6ZM18 9.75C15.93 9.75 14.25 11.43 14.25 13.5C14.25 15.57 15.93 17.25 18 17.25C20.07 17.25 21.75 15.57 21.75 13.5C21.75 11.43 20.07 9.75 18 9.75Z" fill="#222222"/>
</g>
<g id="&#226;&#134;&#179; Dark Color">
<path id="Mask_2" fill-rule="evenodd" clip-rule="evenodd" d="M18 3C23.805 3 28.5 7.695 28.5 13.5C28.5 21.375 18 33 18 33C18 33 7.5 21.375 7.5 13.5C7.5 7.695 12.195 3 18 3ZM25.5 13.5C25.5 9.36 22.14 6 18 6C13.86 6 10.5 9.36 10.5 13.5C10.5 17.775 14.88 24.315 18 28.32C21.18 24.285 25.5 17.82 25.5 13.5Z" fill="#222222"/>
</g>
<g id="&#226;&#134;&#179; Dark Color_2">
<path id="Mask_3" d="M18 17.25C20.0711 17.25 21.75 15.5711 21.75 13.5C21.75 11.4289 20.0711 9.75 18 9.75C15.9289 9.75 14.25 11.4289 14.25 13.5C14.25 15.5711 15.9289 17.25 18 17.25Z" fill="#222222"/>
</g>
</g>
</svg>
